<svg width="20" height="20" viewBox="0 0 20 20" fill="none" xmlns="http://www.w3.org/2000/svg">
<path d="M10 12.6666C11.4728 12.6666 12.6667 11.4727 12.6667 9.99992C12.6667 8.52716 11.4728 7.33325 10 7.33325C8.52725 7.33325 7.33334 8.52716 7.33334 9.99992C7.33334 11.4727 8.52725 12.6666 10 12.6666Z" fill="white"/>
<path d="M13.3327 2H6.666C4.09333 2 2 4.094 2 6.66733V13.334C2 15.9067 4.094 18 6.66733 18H13.334C15.9067 18 18 15.906 18 13.3327V6.666C18 4.09333 15.906 2 13.3327 2ZM10 14C7.794 14 6 12.206 6 10C6 7.794 7.794 6 10 6C12.206 6 14 7.794 14 10C14 12.206 12.206 14 10 14ZM14.6667 6C14.2987 6 14 5.70133 14 5.33333C14 4.96533 14.2987 4.66667 14.6667 4.66667C15.0347 4.66667 15.3333 4.96533 15.3333 5.33333C15.3333 5.70133 15.0347 6 14.6667 6Z" fill="white"/>
</svg>
