<svg width="20" height="20" viewBox="0 0 20 20" fill="none" xmlns="http://www.w3.org/2000/svg">
<path d="M1.25 4.34375C1.90625 4.34375 2.90625 4.34375 3.46875 4.34375C3.75 4.34375 3.96875 4.53125 4.0625 4.78125C4.34375 5.59375 4.96875 7.375 5.6875 8.59375C6.65625 10.1875 7.28125 10.7813 7.6875 10.7188C8.09375 10.625 7.96875 9.5625 7.96875 8.71875C7.96875 7.875 8.0625 6.4375 7.65625 5.78125L7.03125 4.875C6.875 4.65625 7.03125 4.375 7.28125 4.375H10.8437C11.1875 4.375 11.4687 4.65625 11.4687 5V9.53125C11.4687 9.53125 11.625 10.3438 12.5 9.5C13.375 8.65625 14.3125 7.09375 15.0937 5.5L15.4062 4.75C15.5 4.53125 15.7187 4.375 15.9687 4.375H18.2812C18.7188 4.375 19.0312 4.8125 18.875 5.21875L18.625 5.875C18.625 5.875 17.7812 7.5625 16.9062 8.75C16.0312 9.96875 15.8437 10.25 15.9687 10.5625C16.0937 10.875 18.3438 12.9688 18.9062 13.9688C19.0625 14.25 19.1875 14.5 19.3125 14.7188C19.5312 15.125 19.2188 15.6562 18.75 15.6562H16.125C15.9062 15.6562 15.6875 15.5312 15.5937 15.3438L15.3437 14.9375C15.3437 14.9375 13.75 13.0625 12.7812 12.4688C11.7812 11.9063 11.8125 12.7188 11.8125 12.7188V14.375C11.8125 15.0625 11.25 15.625 10.5625 15.625H9.9375C9.9375 15.625 6.5 15.625 3.75 11.5313C1.59375 8.34375 0.874997 6.28125 0.624997 5.09375C0.562497 4.71875 0.843747 4.34375 1.25 4.34375Z" fill="white"/>
</svg>
