<svg width="38" height="38" viewBox="0 0 38 38" fill="none" xmlns="http://www.w3.org/2000/svg">
<path d="M19 24.067C21.7982 24.067 24.0666 21.7986 24.0666 19.0004C24.0666 16.2021 21.7982 13.9337 19 13.9337C16.2017 13.9337 13.9333 16.2021 13.9333 19.0004C13.9333 21.7986 16.2017 24.067 19 24.067Z" fill="#49405A"/>
<path d="M25.3321 3.79993H12.6654C7.77732 3.79993 3.79999 7.77853 3.79999 12.6679V25.3345C3.79999 30.2226 7.77859 34.1999 12.6679 34.1999H25.3346C30.2227 34.1999 34.2 30.2213 34.2 25.332V12.6653C34.2 7.77726 30.2214 3.79993 25.3321 3.79993ZM19 26.5999C14.8086 26.5999 11.4 23.1913 11.4 18.9999C11.4 14.8085 14.8086 11.3999 19 11.3999C23.1914 11.3999 26.6 14.8085 26.6 18.9999C26.6 23.1913 23.1914 26.5999 19 26.5999ZM27.8667 11.3999C27.1675 11.3999 26.6 10.8325 26.6 10.1333C26.6 9.43406 27.1675 8.86659 27.8667 8.86659C28.5659 8.86659 29.1333 9.43406 29.1333 10.1333C29.1333 10.8325 28.5659 11.3999 27.8667 11.3999Z" fill="#49405A"/>
</svg>
