<svg width="38" height="38" viewBox="0 0 38 38" fill="none" xmlns="http://www.w3.org/2000/svg">
<path d="M37.9917 7.21644C36.594 7.8375 35.093 8.25669 33.5148 8.44313C35.1238 7.47888 36.36 5.95175 36.9431 4.1325C35.4362 5.02431 33.7689 5.67506 31.9936 6.023C30.571 4.50894 28.5451 3.5625 26.3019 3.5625C21.9972 3.5625 18.5095 7.05137 18.5095 11.3561C18.5095 11.9664 18.5772 12.5626 18.7102 13.1326C12.2324 12.8072 6.48966 9.70425 2.64453 4.98869C1.97478 6.14056 1.59003 7.47887 1.59003 8.90744C1.59003 11.6126 2.96635 13.9971 5.05635 15.3959C3.77978 15.3544 2.57803 15.0052 1.5271 14.421C1.52591 14.4531 1.52591 14.4875 1.52591 14.5184C1.52591 18.2958 4.21204 21.4463 7.7781 22.1623C7.12497 22.3393 6.43622 22.4354 5.72491 22.4354C5.22141 22.4354 4.73453 22.3867 4.25953 22.2965C5.24991 25.3911 8.1296 27.645 11.5389 27.7091C8.87297 29.7991 5.51235 31.0472 1.86078 31.0472C1.23141 31.0472 0.610347 31.0104 0.00115967 30.9379C3.44966 33.1467 7.54653 34.4375 11.9486 34.4375C26.2841 34.4375 34.1252 22.5613 34.1252 12.2609C34.1252 11.9237 34.1157 11.5864 34.1014 11.2516C35.625 10.1531 36.9455 8.78156 37.9917 7.21644Z" fill="#49405A"/>
</svg>
