<svg width="38" height="38" viewBox="0 0 38 38" fill="none" xmlns="http://www.w3.org/2000/svg">
<path d="M2.37504 8.25317C3.62192 8.25317 5.52192 8.25317 6.59067 8.25317C7.12504 8.25317 7.54067 8.60942 7.71879 9.08442C8.25317 10.6282 9.44067 14.0125 10.8063 16.3282C12.6469 19.3563 13.8344 20.4844 14.6063 20.3657C15.3782 20.1875 15.1407 18.1688 15.1407 16.5657C15.1407 14.9625 15.3188 12.2313 14.5469 10.9844L13.3594 9.26255C13.0625 8.84692 13.3594 8.31255 13.8344 8.31255H20.6032C21.2563 8.31255 21.7907 8.84692 21.7907 9.50005V18.1094C21.7907 18.1094 22.0875 19.6532 23.75 18.05C25.4125 16.4469 27.1938 13.4782 28.6782 10.45L29.2719 9.02505C29.45 8.60942 29.8657 8.31255 30.3407 8.31255H34.7344C35.5657 8.31255 36.1594 9.1438 35.8625 9.91567L35.3875 11.1625C35.3875 11.1625 33.7844 14.3688 32.1219 16.625C30.4594 18.9407 30.1032 19.475 30.3407 20.0688C30.5782 20.6625 34.8532 24.6407 35.9219 26.5407C36.2188 27.0751 36.4563 27.55 36.6938 27.9657C37.1094 28.7375 36.5157 29.7469 35.625 29.7469H30.6375C30.2219 29.7469 29.8063 29.5094 29.6282 29.1532L29.1532 28.3813C29.1532 28.3813 26.125 24.8188 24.2844 23.6907C22.3844 22.6219 22.4438 24.1657 22.4438 24.1657V27.3125C22.4438 28.6188 21.375 29.6875 20.0688 29.6875H18.8813C18.8813 29.6875 12.35 29.6876 7.12504 21.9094C3.02817 15.8532 1.66254 11.9344 1.18754 9.67817C1.06879 8.96567 1.60317 8.25317 2.37504 8.25317Z" fill="#49405A"/>
</svg>
