<svg width="171" height="52" viewBox="0 0 171 52" fill="none" xmlns="http://www.w3.org/2000/svg">
<path d="M82.756 40L88.264 10.84H95.608L101.044 40H95.104L94.132 33.844H89.848L88.84 40H82.756ZM90.424 29.992H93.52L91.972 18.616L90.424 29.992ZM111.447 40.432C109.623 40.432 108.099 40.108 106.875 39.46C105.651 38.812 104.727 37.816 104.103 36.472C103.479 35.104 103.131 33.34 103.059 31.18L108.567 30.352C108.591 31.6 108.699 32.608 108.891 33.376C109.107 34.144 109.395 34.696 109.755 35.032C110.139 35.368 110.595 35.536 111.123 35.536C111.795 35.536 112.227 35.308 112.419 34.852C112.635 34.396 112.743 33.916 112.743 33.412C112.743 32.212 112.455 31.204 111.879 30.388C111.303 29.548 110.523 28.708 109.539 27.868L107.019 25.672C105.915 24.736 104.979 23.68 104.211 22.504C103.467 21.304 103.095 19.828 103.095 18.076C103.095 15.604 103.827 13.72 105.291 12.424C106.755 11.104 108.747 10.444 111.267 10.444C112.827 10.444 114.075 10.708 115.011 11.236C115.971 11.764 116.691 12.46 117.171 13.324C117.675 14.164 118.011 15.064 118.179 16.024C118.371 16.96 118.479 17.86 118.503 18.724L112.959 19.408C112.935 18.544 112.875 17.8 112.779 17.176C112.707 16.528 112.539 16.036 112.275 15.7C112.011 15.34 111.603 15.16 111.051 15.16C110.451 15.16 110.007 15.412 109.719 15.916C109.455 16.42 109.323 16.924 109.323 17.428C109.323 18.508 109.575 19.396 110.079 20.092C110.607 20.764 111.291 21.472 112.131 22.216L114.543 24.34C115.815 25.42 116.883 26.644 117.747 28.012C118.635 29.38 119.079 31.072 119.079 33.088C119.079 34.456 118.767 35.704 118.143 36.832C117.519 37.936 116.631 38.812 115.479 39.46C114.351 40.108 113.007 40.432 111.447 40.432ZM122.235 40V10.84H128.679V40H122.235ZM131.623 40L137.131 10.84H144.475L149.911 40H143.971L142.999 33.844H138.715L137.707 40H131.623ZM139.291 29.992H142.387L140.839 18.616L139.291 29.992ZM152.855 40V10.84H157.391L163.367 24.88V10.84H168.695V40H164.339L158.363 24.88V40H152.855Z" fill="#FFD5CD"/>
<path d="M2.16 40V10.84H11.952C13.704 10.84 15.144 11.176 16.272 11.848C17.4 12.496 18.24 13.456 18.792 14.728C19.344 15.976 19.62 17.5 19.62 19.3C19.62 21.556 19.248 23.284 18.504 24.484C17.76 25.66 16.752 26.476 15.48 26.932C14.208 27.388 12.78 27.616 11.196 27.616H8.604V40H2.16ZM8.604 23.116H10.764C11.556 23.116 12.156 22.972 12.564 22.684C12.972 22.396 13.236 21.964 13.356 21.388C13.5 20.812 13.572 20.08 13.572 19.192C13.572 18.448 13.512 17.8 13.392 17.248C13.296 16.672 13.044 16.216 12.636 15.88C12.228 15.544 11.592 15.376 10.728 15.376H8.604V23.116ZM19.6349 40L25.1429 10.84H32.4869L37.9229 40H31.9829L31.0109 33.844H26.7269L25.7189 40H19.6349ZM27.3029 29.992H30.3989L28.8509 18.616L27.3029 29.992ZM40.867 40V10.84H45.403L51.379 24.88V10.84H56.707V40H52.351L46.375 24.88V40H40.867Z" fill="white"/>
<mask id="mask0_605_8" style="mask-type:alpha" maskUnits="userSpaceOnUse" x="58" y="28" width="24" height="24">
<path d="M70 43C73.866 43 77 39.866 77 36C77 32.134 73.866 29 70 29C66.134 29 63 32.134 63 36C63 39.866 66.134 43 70 43Z" stroke="black" stroke-width="2" stroke-linecap="round" stroke-linejoin="round"/>
<path d="M66.21 41.8899L65 50.9999L70 47.9999L75 50.9999L73.79 41.8799" stroke="black" stroke-width="2" stroke-linecap="round" stroke-linejoin="round"/>
</mask>
<g mask="url(#mask0_605_8)">
<rect x="-1" y="82" width="85" height="140" transform="rotate(-89.4436 -1 82)" fill="url(#paint0_linear_605_8)"/>
</g>
<defs>
<linearGradient id="paint0_linear_605_8" x1="41.5" y1="82" x2="41.5" y2="222" gradientUnits="userSpaceOnUse">
<stop stop-color="white"/>
<stop offset="1" stop-color="#FFD5CD"/>
</linearGradient>
</defs>
</svg>
