<svg width="278" height="84" viewBox="0 0 278 84" fill="none" xmlns="http://www.w3.org/2000/svg">
<path d="M135.089 64L143.963 17.02H155.795L164.553 64H154.983L153.417 54.082H146.515L144.891 64H135.089ZM147.443 47.876H152.431L149.937 29.548L147.443 47.876ZM181.313 64.696C178.374 64.696 175.919 64.174 173.947 63.13C171.975 62.086 170.486 60.4813 169.481 58.316C168.475 56.112 167.915 53.27 167.799 49.79L176.673 48.456C176.711 50.4667 176.885 52.0907 177.195 53.328C177.543 54.5653 178.007 55.4547 178.587 55.996C179.205 56.5373 179.94 56.808 180.791 56.808C181.873 56.808 182.569 56.4407 182.879 55.706C183.227 54.9713 183.401 54.198 183.401 53.386C183.401 51.4527 182.937 49.8287 182.009 48.514C181.081 47.1607 179.824 45.8073 178.239 44.454L174.179 40.916C172.4 39.408 170.892 37.7067 169.655 35.812C168.456 33.8787 167.857 31.5007 167.857 28.678C167.857 24.6953 169.036 21.66 171.395 19.572C173.753 17.4453 176.963 16.382 181.023 16.382C183.536 16.382 185.547 16.8073 187.055 17.658C188.601 18.5087 189.761 19.63 190.535 21.022C191.347 22.3753 191.888 23.8253 192.159 25.372C192.468 26.88 192.642 28.33 192.681 29.722L183.749 30.824C183.71 29.432 183.613 28.2333 183.459 27.228C183.343 26.184 183.072 25.3913 182.647 24.85C182.221 24.27 181.564 23.98 180.675 23.98C179.708 23.98 178.993 24.386 178.529 25.198C178.103 26.01 177.891 26.822 177.891 27.634C177.891 29.374 178.297 30.8047 179.109 31.926C179.959 33.0087 181.061 34.1493 182.415 35.348L186.301 38.77C188.35 40.51 190.071 42.482 191.463 44.686C192.893 46.89 193.609 49.616 193.609 52.864C193.609 55.068 193.106 57.0787 192.101 58.896C191.095 60.6747 189.665 62.086 187.809 63.13C185.991 64.174 183.826 64.696 181.313 64.696ZM198.694 64V17.02H209.076V64H198.694ZM213.819 64L222.693 17.02H234.525L243.283 64H233.713L232.147 54.082H225.245L223.621 64H213.819ZM226.173 47.876H231.161L228.667 29.548L226.173 47.876ZM248.026 64V17.02H255.334L264.962 39.64V17.02H273.546V64H266.528L256.9 39.64V64H248.026Z" fill="#49405A"/>
<path d="M3.48 64V17.02H19.256C22.0787 17.02 24.3987 17.5613 26.216 18.644C28.0333 19.688 29.3867 21.2347 30.276 23.284C31.1653 25.2947 31.61 27.75 31.61 30.65C31.61 34.2847 31.0107 37.0687 29.812 39.002C28.6133 40.8967 26.9893 42.2113 24.94 42.946C22.8907 43.6807 20.59 44.048 18.038 44.048H13.862V64H3.48ZM13.862 36.798H17.342C18.618 36.798 19.5847 36.566 20.242 36.102C20.8993 35.638 21.3247 34.942 21.518 34.014C21.75 33.086 21.866 31.9067 21.866 30.476C21.866 29.2773 21.7693 28.2333 21.576 27.344C21.4213 26.416 21.0153 25.6813 20.358 25.14C19.7007 24.5987 18.676 24.328 17.284 24.328H13.862V36.798ZM31.634 64L40.508 17.02H52.34L61.098 64H51.528L49.962 54.082H43.06L41.436 64H31.634ZM43.988 47.876H48.976L46.482 29.548L43.988 47.876ZM65.8413 64V17.02H73.1493L82.7773 39.64V17.02H91.3613V64H84.3433L74.7153 39.64V64H65.8413Z" fill="#49405A"/>
<mask id="mask0_605_40" style="mask-type:alpha" maskUnits="userSpaceOnUse" x="94" y="45" width="40" height="39">
<g clip-path="url(#clip0_605_40)">
<path d="M114.408 69.4616C120.678 69.4616 125.761 64.399 125.761 58.1539C125.761 51.9088 120.678 46.8462 114.408 46.8462C108.138 46.8462 103.055 51.9088 103.055 58.1539C103.055 64.399 108.138 69.4616 114.408 69.4616Z" stroke="black" stroke-width="3.23077" stroke-linecap="round" stroke-linejoin="round"/>
<path d="M108.261 67.6685L106.299 82.3847L114.408 77.5385L122.517 82.3847L120.555 67.6523" stroke="black" stroke-width="3.23077" stroke-linecap="round" stroke-linejoin="round"/>
</g>
</mask>
<g mask="url(#mask0_605_40)">
<rect width="137.308" height="227.065" transform="matrix(0.00974917 -0.999952 0.999953 0.00967112 -0.746277 132.461)" fill="#49405A"/>
</g>
<defs>
<clipPath id="clip0_605_40">
<rect width="38.9254" height="38.7692" fill="white" transform="translate(94.9453 45.2307)"/>
</clipPath>
</defs>
</svg>
